<svg width="30" height="30" xmlns="http://www.w3.org/2000/svg">

 <g>
  <title>Layer 1</title>
  <g>
   <title>comment</title>
   <path d="m369.37,348.6484l19.09,-18.31a3.84,3.84 0 0 1 2.63,-1.06l60,0a2.15,2.15 0 0 0 2.16,-2.16l0,-78.74a2.16,2.16 0 0 0 -0.64,-1.52a2.19,2.19 0 0 0 -1.52,-0.64l-102.18,0a2.24,2.24 0 0 0 -2.17,2.16l0,78.73a2.19,2.19 0 0 0 2.17,2.16l16.64,0a3.83,3.83 0 0 1 3.82,3.83l0,15.55zm-1.83,-46.53a3.83,3.83 0 1 1 0,-7.66l53,0a3.83,3.83 0 0 1 0,7.66l-53,0zm0,-24.86a3.83,3.83 0 1 1 0,-7.65l65,0a3.83,3.83 0 0 1 0,7.65l-65,0zm25.09,59.66l-24.27,23.28a3.82,3.82 0 0 1 -6.64,-2.59l0,-20.69l-12.81,0a9.87,9.87 0 0 1 -9.82,-9.81l0,-78.73a9.9,9.9 0 0 1 9.82,-9.82l102.18,0a9.87,9.87 0 0 1 9.82,9.82l0,78.73a9.85,9.85 0 0 1 -9.82,9.81l-58.46,0z"/>
  </g>
  <g stroke-width="0">
   <title>comment</title>
   <path d="m19.37,348.6484l19.09,-18.31a3.84,3.84 0 0 1 2.63,-1.06l60,0a2.15,2.15 0 0 0 2.16,-2.16l0,-78.74a2.16,2.16 0 0 0 -0.64,-1.52a2.19,2.19 0 0 0 -1.52,-0.64l-102.18,0a2.24,2.24 0 0 0 -2.17,2.16l0,78.73a2.19,2.19 0 0 0 2.17,2.16l16.64,0a3.83,3.83 0 0 1 3.82,3.83l0,15.55zm-1.83,-46.53a3.83,3.83 0 1 1 0,-7.66l53,0a3.83,3.83 0 0 1 0,7.66l-53,0zm0,-24.86a3.83,3.83 0 1 1 0,-7.65l65,0a3.83,3.83 0 0 1 0,7.65l-65,0zm25.09,59.66l-24.27,23.28a3.82,3.82 0 0 1 -6.64,-2.59l0,-20.69l-12.81,0a9.87,9.87 0 0 1 -9.82,-9.81l0,-78.73a9.9,9.9 0 0 1 9.82,-9.82l102.18,0a9.87,9.87 0 0 1 9.82,9.82l0,78.73a9.85,9.85 0 0 1 -9.82,9.81l-58.46,0z"/>
  </g>
  <g stroke="null">
   <title stroke="null">comment</title>
   <path stroke="null" d="m9.25935,23.16337l3.88946,-3.26067a0.78237,0.68383 0 0 1 0.53584,-0.18877l12.2246,0a0.43805,0.38287 0 0 0 0.44009,-0.38466l0,-14.02213a0.44009,0.38466 0 0 0 -0.1304,-0.27068a0.4462,0.39 0 0 0 -0.30969,-0.11397l-20.81849,0a0.45638,0.3989 0 0 0 -0.44212,0.38466l0,14.02035a0.4462,0.39 0 0 0 0.44212,0.38466l3.39029,0a0.78034,0.68205 0 0 1 0.7783,0.68205l0,2.76917zm-0.37285,-8.28613a0.78034,0.68205 0 1 1 0,-1.3641l10.79839,0a0.78034,0.68205 0 0 1 0,1.3641l-10.79839,0zm0,-4.4271a0.78034,0.68205 0 1 1 0,-1.36232l13.24331,0a0.78034,0.68205 0 0 1 0,1.36232l-13.24331,0zm5.11192,10.62433l-4.94485,4.14573a0.7783,0.68027 0 0 1 -1.35286,-0.46123l0,-3.6845l-2.60995,0a2.01095,1.75766 0 0 1 -2.00076,-1.74698l0,-14.02035a2.01706,1.76301 0 0 1 2.00076,-1.74876l20.81849,0a2.01095,1.75766 0 0 1 2.00076,1.74876l0,14.02035a2.00687,1.7541 0 0 1 -2.00076,1.74698l-11.91083,0z"/>
  </g>
 </g>
</svg>